<svg width="750" height="750" viewBox="0 0 750 750" fill="none" xmlns="http://www.w3.org/2000/svg">
<rect width="750" height="750" fill="#19263F" fill-opacity="0.2"/>
<path fill-rule="evenodd" clip-rule="evenodd" d="M310.378 373.583C342.122 373.583 367.631 399.087 367.631 430.258C367.631 461.429 342.122 487.5 310.378 487.5C278.634 487.5 253.125 461.996 253.125 430.258C253.125 398.52 279.201 373.583 310.378 373.583ZM331.352 401.354C340.988 401.354 348.358 409.288 348.358 418.356C348.358 427.991 340.988 435.359 331.352 435.359C321.715 435.359 314.346 427.991 314.346 418.356C314.346 409.288 321.715 401.354 331.352 401.354ZM374.433 262.5C406.177 262.5 431.686 288.004 431.686 319.742C431.686 351.48 406.177 376.984 374.433 376.984C342.689 376.984 317.747 351.48 317.747 319.742C317.747 288.004 342.689 262.5 374.433 262.5ZM375 325.409C384.637 325.409 392.006 332.777 392.006 342.412C392.006 351.48 384.637 359.414 375 359.414C365.93 359.414 357.994 351.48 357.994 342.412C357.994 332.777 365.93 325.409 375 325.409ZM440.189 373.583C471.933 373.583 496.875 399.087 496.875 430.258C496.875 461.429 471.366 487.5 440.189 487.5C408.445 487.5 382.936 461.996 382.936 430.258C382.936 398.52 408.445 373.583 440.189 373.583ZM419.215 401.354C428.852 401.354 436.221 409.288 436.221 418.356C436.221 427.991 428.852 435.359 419.215 435.359C410.145 435.359 402.209 427.991 402.209 418.356C402.209 409.288 410.145 401.354 419.215 401.354Z" fill="#fff"/>
</svg>
