<svg xmlns="http://www.w3.org/2000/svg" width="25px" height="25px" viewBox="0 0 25 25" aria-labelledby="box" preserveAspectRatio="none" role="presentation" class="categories-list__cartIcon"><title id="box" lang="en">box icon</title><g fill="white"><g><path transform="translate(-1771 -107)" id="hbb1a" d="M1791.8 110H1777v6h13.37zm.94-3a2.25 2.25 0 0 1 2.19 2.8l-1.78 7.47a2.25 2.25 0 0 1-2.18 1.73H1777v3h15a1.5 1.5 0 0 1 0 3h-15.75c-1.24 0-2.25-1-2.25-2.25V110h-1.5a1.5 1.5 0 0 1 0-3zM1780 128.75a2.25 2.25 0 1 1-4.5 0 2.25 2.25 0 0 1 4.5 0zm12 0a2.25 2.25 0 1 1-4.5 0 2.25 2.25 0 0 1 4.5 0z"></path></g></g></svg>