<svg xmlns="http://www.w3.org/2000/svg" width="17px" height="17px" viewBox="0 0 25 25" aria-labelledby="box" preserveAspectRatio="none" role="presentation"><title id="box" lang="en">box icon</title><g fill="#ffc527"><g><path id="phone" d="M1481.99,33.723l-3.45-3.453a0.976,0.976,0,0,0-1.38,0l-2.6,2.6a1.947,1.947,0,0,0-.46,2.048,26.106,26.106,0,0,0,5.82,9.161,26.124,26.124,0,0,0,9.16,5.816,1.945,1.945,0,0,0,2.05-.455l2.6-2.6a0.979,0.979,0,0,0,0-1.381l-3.46-3.452a0.975,0.975,0,0,0-1.38,0l-2.07,2.071a14.319,14.319,0,0,1-4.14-2.762,14.238,14.238,0,0,1-2.76-4.143l2.07-2.071A0.979,0.979,0,0,0,1481.99,33.723Z" transform="translate(-1474 -30)" class="cls-1"></path></g></g></svg>